<?xml version="1.0" standalone="no"?>
<svg xmlns:xlink="http://www.w3.org/1999/xlink" id="wave" style="transform:rotate(180deg); transition: 0.3s" viewBox="0 0 1440 100" version="1.1" xmlns="http://www.w3.org/2000/svg"><defs><linearGradient id="sw-gradient-0" x1="0" x2="0" y1="1" y2="0"><stop stop-color="rgba(255, 249, 234, 1)" offset="0%"/><stop stop-color="rgba(255, 249, 234, 1)" offset="100%"/></linearGradient></defs><path style="transform:translate(0, 0px); opacity:1" fill="url(#sw-gradient-0)" d="M0,50L20,56.7C40,63,80,77,120,83.3C160,90,200,90,240,80C280,70,320,50,360,35C400,20,440,10,480,10C520,10,560,20,600,31.7C640,43,680,57,720,55C760,53,800,37,840,26.7C880,17,920,13,960,10C1000,7,1040,3,1080,8.3C1120,13,1160,27,1200,36.7C1240,47,1280,53,1320,60C1360,67,1400,73,1440,76.7C1480,80,1520,80,1560,68.3C1600,57,1640,33,1680,25C1720,17,1760,23,1800,28.3C1840,33,1880,37,1920,45C1960,53,2000,67,2040,65C2080,63,2120,47,2160,41.7C2200,37,2240,43,2280,40C2320,37,2360,23,2400,20C2440,17,2480,23,2520,21.7C2560,20,2600,10,2640,6.7C2680,3,2720,7,2760,13.3C2800,20,2840,30,2860,35L2880,40L2880,100L2860,100C2840,100,2800,100,2760,100C2720,100,2680,100,2640,100C2600,100,2560,100,2520,100C2480,100,2440,100,2400,100C2360,100,2320,100,2280,100C2240,100,2200,100,2160,100C2120,100,2080,100,2040,100C2000,100,1960,100,1920,100C1880,100,1840,100,1800,100C1760,100,1720,100,1680,100C1640,100,1600,100,1560,100C1520,100,1480,100,1440,100C1400,100,1360,100,1320,100C1280,100,1240,100,1200,100C1160,100,1120,100,1080,100C1040,100,1000,100,960,100C920,100,880,100,840,100C800,100,760,100,720,100C680,100,640,100,600,100C560,100,520,100,480,100C440,100,400,100,360,100C320,100,280,100,240,100C200,100,160,100,120,100C80,100,40,100,20,100L0,100Z"/></svg>